<svg width="512" height="512" viewBox="0 0 512 512" fill="none" xmlns="http://www.w3.org/2000/svg" xmlns:xlink="http://www.w3.org/1999/xlink" class=""><rect id="r31" width="512" height="512" x="0" y="0" rx="128" fill="#09090B" stroke="#FFFFFF" stroke-width="0" stroke-opacity="100%" paint-order="stroke"></rect><rect width="512" height="512" x="0" y="0" fill="url(#r33)" rx="128" style="mix-blend-mode: overlay;"></rect><clipPath id="clip"><use xlink:href="#r31"></use></clipPath><defs><linearGradient id="r32" gradientUnits="userSpaceOnUse" gradientTransform="rotate(135)" style="transform-origin: center center;"><stop stop-color="#09090B"></stop><stop offset="1" stop-color="#380202"></stop></linearGradient><radialGradient id="r33" cx="0" cy="0" r="1" gradientUnits="userSpaceOnUse" gradientTransform="translate(256) rotate(90) scale(512)"><stop stop-color="white"></stop><stop offset="1" stop-color="white" stop-opacity="0"></stop></radialGradient></defs><svg xmlns="http://www.w3.org/2000/svg" fill="none" viewBox="0 0 16 16" width="300" height="300" x="106" y="106" alignment-baseline="middle" style="color: rgb(255, 255, 255);"><path stroke="currentColor" stroke-linecap="round" stroke-linejoin="round" stroke-width="1.5" d="M10.25 1.75v12.5m-4.5-12.5v12.5m-3-9.5h3M2.75 8h3m-3 3.25h3m4.5 0h3m-3-3.25h3m-3-3.25h3m-1-3h-8.5a1 1 0 0 0-1 1v10.5a1 1 0 0 0 1 1h8.5a1 1 0 0 0 1-1V2.75a1 1 0 0 0-1-1Z"></path></svg></svg>